<svg xmlns="http://www.w3.org/2000/svg" viewBox="0 0 40.0 40.0" width="40.0" height="40.0"><rect width="40" height="40" fill="#FAF9F7"/><path d="M18.7335 22.159000000000002Q18.7335 22.958000000000002 18.5975 23.706000000000003Q18.4615 24.454 18.045 25.049Q17.6285 25.644000000000002 16.838 26.001000000000005Q16.0475 26.358000000000004 14.7385 26.358000000000004Q13.7695 26.358000000000004 13.089500000000001 26.060500000000005Q12.4095 25.763 11.9675 25.244500000000002Q11.5255 24.726000000000003 11.3215 24.012Q11.1175 23.298000000000002 11.1175 22.465000000000003V21.819000000000003H13.2425V22.448Q13.2425 23.485000000000003 13.591 24.054500000000004Q13.939499999999999 24.624000000000002 14.9085 24.624000000000002Q15.4185 24.624000000000002 15.75 24.471000000000004Q16.0815 24.318 16.277 24.020500000000002Q16.4725 23.723000000000003 16.5405 23.281000000000002Q16.6085 22.839000000000002 16.6085 22.278000000000002V13.931000000000001H18.7335Z" fill="#1C1A17"/><path d="M18.3935 13.931000000000001H20.5185V19.456000000000003L25.9245 13.931000000000001H28.542499999999997L23.697499999999998 18.776000000000003L28.8825 26.069000000000003H26.2305L22.252499999999998 20.272000000000002L20.5185 21.989000000000004V26.069000000000003H18.3935Z" fill="#1C1A17"/></svg>