<svg width="118" height="118" viewBox="0 0 118 118" fill="none" xmlns="http://www.w3.org/2000/svg">
<path d="M67.1938 14.7498C67.2503 14.7498 68.0206 14.7182 68.8413 14.8787L69.1948 14.9597L69.5864 15.0789C71.3893 15.6929 72.8072 17.11 73.4214 18.9128L73.5405 19.3054L73.6216 19.658C73.7819 20.4778 73.7496 21.2473 73.7495 21.3054C73.7495 21.7509 73.7921 22.9385 73.4985 24.0339C72.8166 26.5789 70.8287 28.5668 68.2837 29.2488C67.1882 29.5423 66.0007 29.4998 65.5552 29.4998H52.4438C51.998 29.4998 50.8113 29.5421 49.7163 29.2488C47.1713 28.5668 45.1834 26.5789 44.5015 24.0339C44.2079 22.9385 44.2495 21.7509 44.2495 21.3054C44.2494 21.2389 44.2081 20.2435 44.4595 19.3054C45.0278 17.1845 46.6843 15.528 48.8052 14.9597C49.7433 14.7084 50.7387 14.7497 50.8052 14.7498H67.1938Z" stroke="#33363F" stroke-width="9.83333"/>
<rect x="29.5" y="14.75" width="59" height="88.5" rx="9.83333" stroke="#33363F" stroke-width="9.83333"/>
<circle cx="59.0002" cy="88.4999" r="4.91667" fill="#33363F"/>
</svg>
