<svg width="24" height="24" viewBox="0 0 24 24" fill="none" xmlns="http://www.w3.org/2000/svg">
<circle cx="9" cy="9" r="3" stroke="#33363F" stroke-width="2" stroke-linecap="round"/>
<path d="M12.2679 9C12.5332 8.54063 12.97 8.20543 13.4824 8.06815C13.9947 7.93086 14.5406 8.00273 15 8.26795C15.4594 8.53317 15.7946 8.97 15.9319 9.48236C16.0691 9.99472 15.9973 10.5406 15.7321 11C15.4668 11.4594 15.03 11.7946 14.5176 11.9319C14.0053 12.0691 13.4594 11.9973 13 11.7321C12.5406 11.4668 12.2054 11.03 12.0681 10.5176C11.9309 10.0053 12.0027 9.45937 12.2679 9L12.2679 9Z" stroke="#33363F" stroke-width="2"/>
<path d="M13.9995 15V14H13.9994L13.9995 15ZM17.7202 17.9043L18.6627 17.5702L18.6627 17.57L17.7202 17.9043ZM13.8813 19L12.901 19.1974L13.0627 20H13.8813V19ZM11.7827 15.7129L11.1779 14.9165L10.0221 15.7943L11.254 16.5617L11.7827 15.7129ZM13.9995 15V16C15.6412 16 16.4028 17.1814 16.7777 18.2386L17.7202 17.9043L18.6627 17.57C18.1976 16.2588 16.9479 14 13.9995 14V15ZM17.7202 17.9043L16.7777 18.2384C16.7706 18.2184 16.7641 18.1807 16.7725 18.135C16.7804 18.0917 16.7982 18.059 16.8151 18.038C16.8472 17.9981 16.8735 18 16.8667 18V19V20C18.0118 20 19.1414 18.9204 18.6627 17.5702L17.7202 17.9043ZM16.8667 19V18H13.8813V19V20H16.8667V19ZM13.8813 19L14.8617 18.8026C14.6437 17.7205 14.0373 15.9392 12.3114 14.8641L11.7827 15.7129L11.254 16.5617C12.292 17.2083 12.727 18.3334 12.901 19.1974L13.8813 19ZM11.7827 15.7129L12.3875 16.5092C12.7741 16.2157 13.2844 16.0001 13.9996 16L13.9995 15L13.9994 14C12.8352 14.0001 11.9024 14.3662 11.1779 14.9165L11.7827 15.7129Z" fill="#33363F"/>
<path d="M9 15C12.5715 15 13.5919 17.5512 13.8834 19.0089C13.9917 19.5504 13.5523 20 13 20H5C4.44772 20 4.00829 19.5504 4.11659 19.0089C4.4081 17.5512 5.42846 15 9 15Z" stroke="#33363F" stroke-width="2" stroke-linecap="round"/>
</svg>
