<svg width="135" height="135" viewBox="0 0 135 135" fill="none" xmlns="http://www.w3.org/2000/svg">
<path d="M39.375 28.125H95.625C101.087 28.125 104.618 28.1366 107.22 28.4863C109.66 28.8143 110.424 29.3443 110.853 29.7725C111.281 30.2007 111.811 30.9655 112.139 33.4053C112.488 36.0069 112.5 39.5378 112.5 45V90H22.5V45C22.5 39.5378 22.5116 36.0069 22.8613 33.4053C23.1893 30.9655 23.7193 30.2007 24.1475 29.7725C24.5757 29.3443 25.3405 28.8143 27.7803 28.4863C30.3819 28.1366 33.9128 28.125 39.375 28.125Z" stroke="#C97836" stroke-opacity="0.5" stroke-width="11.25"/>
<path d="M114.375 90C119.553 90 123.75 94.1973 123.75 99.375C123.75 106.624 117.874 112.5 110.625 112.5H24.375C17.1263 112.5 11.25 106.624 11.25 99.375C11.25 94.1973 15.4473 90 20.625 90H114.375Z" stroke="#C97836" stroke-opacity="0.5" stroke-width="11.25"/>
</svg>
