<svg width="135" height="135" viewBox="0 0 135 135" fill="none" xmlns="http://www.w3.org/2000/svg">
<path d="M90 112.5H103.5C106.65 112.5 108.225 112.5 109.429 111.887C110.487 111.348 111.348 110.487 111.887 109.429C112.5 108.225 112.5 106.65 112.5 103.5V54C112.5 50.8497 112.5 49.2746 111.887 48.0713C111.348 47.0129 110.487 46.1524 109.429 45.6131C108.225 45 106.65 45 103.5 45H76.8529C75.4771 45 74.7892 45 74.1418 44.8446C73.5679 44.7068 73.0192 44.4795 72.5159 44.1711C71.9482 43.8232 71.4618 43.3368 70.489 42.364L58.886 30.761C57.9132 29.7882 57.4268 29.3018 56.8591 28.9539C56.3558 28.6455 55.8071 28.4182 55.2332 28.2804C54.5858 28.125 53.8979 28.125 52.5221 28.125H31.5C28.3497 28.125 26.7746 28.125 25.5713 28.7381C24.5129 29.2774 23.6524 30.1379 23.1131 31.1963C22.5 32.3996 22.5 33.9747 22.5 37.125V103.5C22.5 106.65 22.5 108.225 23.1131 109.429C23.6524 110.487 24.5129 111.348 25.5713 111.887C26.7746 112.5 28.3497 112.5 31.5 112.5H45" stroke="#C97836" stroke-opacity="0.5" stroke-width="11.25" stroke-linejoin="round"/>
<path d="M84.375 84.375L67.5 67.5L50.625 84.375M67.5 67.5L67.5 106.875" stroke="#C97836" stroke-opacity="0.5" stroke-width="11.25"/>
</svg>
