<svg width="30" height="30" viewBox="0 0 30 30" fill="none" xmlns="http://www.w3.org/2000/svg">
<path d="M11.0625 6.25H7.5C6.80964 6.25 6.25 6.80964 6.25 7.5V15C6.25 15.6904 6.80964 16.25 7.5 16.25H11.0625C11.1661 16.25 11.25 16.1661 11.25 16.0625V6.4375C11.25 6.33395 11.1661 6.25 11.0625 6.25Z" stroke="#33363F" stroke-width="2.5" stroke-linecap="round"/>
<path d="M11.25 16.25L13.5401 19.6851C13.677 19.8904 13.75 20.1317 13.75 20.3785V23.75C13.75 24.4404 14.3096 25 15 25H16.25C17.6307 25 18.75 23.8807 18.75 22.5V16.25" stroke="#33363F" stroke-width="2.5" stroke-linecap="round"/>
<path d="M16.25 16.25H22.2068C23.6969 16.25 24.8561 14.9548 24.6915 13.4739L23.9971 7.22392C23.8564 5.95784 22.7863 5 21.5124 5H16.7678C16.4362 5 16.1183 5.1317 15.8839 5.36612L15.3661 5.88388C15.1317 6.1183 14.8138 6.25 14.4822 6.25H11.25" stroke="#33363F" stroke-width="2.5" stroke-linecap="round"/>
</svg>
