<svg width="59" height="59" viewBox="0 0 59 59" fill="none" xmlns="http://www.w3.org/2000/svg">
<path d="M51.1218 29.2124H43.99C42.7144 29.2124 42.0767 29.2124 41.5385 29.5004C41.0002 29.7885 40.6465 30.3191 39.9389 31.3804L37.9609 34.3474C37.2534 35.4087 36.8996 35.9394 36.3614 36.2274C35.8232 36.5155 35.1854 36.5155 33.9099 36.5155H24.5151C23.2395 36.5155 22.6018 36.5155 22.0636 36.2274C21.5253 35.9394 21.1716 35.4087 20.464 34.3474L18.486 31.3804C17.7785 30.3191 17.4247 29.7885 16.8865 29.5004C16.3483 29.2124 15.7105 29.2124 14.435 29.2124H7.30322" stroke="#C97836" stroke-width="4.86873"/>
<path d="M17.0407 17.0405L8.01623 26.065C7.5597 26.5215 7.30322 27.1407 7.30322 27.7863V41.3842C7.30322 44.0731 9.48303 46.2529 12.172 46.2529H46.253C48.942 46.2529 51.1218 44.0731 51.1218 41.3842V27.7863C51.1218 27.1407 50.8653 26.5215 50.4087 26.065L41.3843 17.0405" stroke="#C97836" stroke-width="4.86873" stroke-linecap="round"/>
<path d="M41.3842 31.6469V15.0025C41.3842 14.4071 41.3842 14.1094 41.3169 13.8292C41.2573 13.5808 41.1589 13.3433 41.0254 13.1255C40.8749 12.8799 40.6644 12.6693 40.2433 12.2483L36.4391 8.44404C36.018 8.02301 35.8075 7.8125 35.5619 7.66195C35.344 7.52848 35.1066 7.43012 34.8582 7.37048C34.578 7.30322 34.2803 7.30322 33.6849 7.30322H22.883C20.8379 7.30322 19.8154 7.30322 19.0343 7.70122C18.3472 8.0513 17.7886 8.60992 17.4385 9.297C17.0405 10.0781 17.0405 11.1006 17.0405 13.1457V31.6469" stroke="#C97836" stroke-width="4.86873"/>
<path d="M31.6465 7.30308L31.6465 13.1455C31.6465 14.5089 31.6465 15.1906 31.9118 15.7113C32.1452 16.1694 32.5176 16.5418 32.9757 16.7752C33.4964 17.0405 34.1781 17.0405 35.5415 17.0405L41.3839 17.0405" stroke="#C97836" stroke-width="4.86873"/>
</svg>
