<svg width="59" height="59" viewBox="0 0 59 59" fill="none" xmlns="http://www.w3.org/2000/svg">
<rect x="31.6465" y="34.0811" width="4.86873" height="4.86873" rx="2.43436" fill="#C97836"/>
<rect x="17.0405" y="26.7778" width="4.86873" height="14.6062" rx="2.43436" fill="#C97836"/>
<rect x="26.7778" y="31.6465" width="4.86873" height="14.6062" rx="2.43436" transform="rotate(90 26.7778 31.6465)" fill="#C97836"/>
<rect x="38.9497" y="29.2124" width="4.86873" height="4.86873" rx="2.43436" fill="#C97836"/>
<path d="M34.0812 19.4748C34.0812 18.4603 34.0812 17.9531 33.9971 17.5065C33.7052 15.9562 32.6802 14.6435 31.247 13.9842C30.8342 13.7943 30.3421 13.6713 29.3578 13.4253L29.2125 13.3889C28.0898 13.1083 27.5285 12.9679 27.0631 12.7389C25.7279 12.082 24.7665 10.8506 24.453 9.39605C24.3438 8.88902 24.3438 8.3104 24.3438 7.15317V4.86865" stroke="#C97836" stroke-width="4.86873" stroke-linecap="round"/>
<path d="M7.30322 34.0813C7.30322 27.8522 7.30322 24.7377 8.81238 22.5921C9.20091 22.0397 9.65413 21.5453 10.1605 21.1215C12.1272 19.4751 14.9822 19.4751 20.6922 19.4751H37.7328C43.4427 19.4751 46.2977 19.4751 48.2645 21.1215C48.7708 21.5453 49.2241 22.0397 49.6126 22.5921C51.1218 24.7377 51.1218 27.8522 51.1218 34.0813C51.1218 40.3103 51.1218 43.4249 49.6126 45.5705C49.2241 46.1228 48.7708 46.6172 48.2645 47.0411C46.2977 48.6875 43.4427 48.6875 37.7328 48.6875H20.6922C14.9822 48.6875 12.1272 48.6875 10.1605 47.0411C9.65413 46.6172 9.20091 46.1228 8.81238 45.5705C7.30322 43.4249 7.30322 40.3103 7.30322 34.0813Z" stroke="#C97836" stroke-width="4.86873"/>
</svg>
