<svg width="154" height="154" viewBox="0 0 154 154" fill="none" xmlns="http://www.w3.org/2000/svg">
<path d="M44.917 29.6667H109.083C115.246 29.6667 119.466 29.6756 122.632 30.1013C125.683 30.5115 127.151 31.2413 128.163 32.2537C129.175 33.266 129.905 34.7338 130.315 37.7849C130.741 40.9511 130.75 45.171 130.75 51.3337V105.084H23.25V51.3337C23.25 45.171 23.2589 40.9511 23.6846 37.7849C24.0948 34.7338 24.8246 33.266 25.8369 32.2537C26.8492 31.2413 28.317 30.5115 31.3682 30.1013C34.5344 29.6756 38.7543 29.6667 44.917 29.6667Z" stroke="#33363F" stroke-width="8"/>
<path d="M130.473 105.083C135.044 105.083 138.75 108.789 138.75 113.361C138.75 120.295 133.129 125.916 126.194 125.916H27.8057C20.8714 125.916 15.25 120.295 15.25 113.361C15.2502 108.789 18.956 105.083 23.5273 105.083H130.473Z" stroke="#33363F" stroke-width="8"/>
</svg>
