<svg width="91" height="95" viewBox="0 0 91 95" fill="none" xmlns="http://www.w3.org/2000/svg">
<path d="M51.5892 23.146C53.4623 19.9017 56.5474 17.5344 60.166 16.5648C63.7845 15.5952 67.64 16.1028 70.8843 17.9759C74.1286 19.849 76.4959 22.9341 77.4655 26.5527C78.4351 30.1712 77.9275 34.0267 76.0544 37.271C74.1813 40.5153 71.0961 42.8826 67.4776 43.8522C63.8591 44.8218 60.0036 44.3142 56.7593 42.4411C53.515 40.568 51.1477 37.4829 50.1781 33.8643C49.2085 30.2458 49.7161 26.3903 51.5892 23.146L51.5892 23.146Z" stroke="#33363F" stroke-width="8"/>
<path d="M63.8223 60.4167L63.8223 56.4167H63.8223V60.4167ZM86.2979 77.9626L90.0677 76.6255L90.0677 76.6255L86.2979 77.9626ZM63.1055 84.5837L59.1842 85.3735L59.8307 88.5837H63.1055V84.5837ZM50.415 64.7107L47.9956 61.5254L43.3696 65.0391L48.3024 68.1072L50.415 64.7107ZM63.8223 60.4167L63.8222 64.4167C75.074 64.4169 80.1702 72.6525 82.528 79.2998L86.2979 77.9626L90.0677 76.6255C87.35 68.9634 80.3018 56.4169 63.8223 56.4167L63.8223 60.4167ZM86.2979 77.9626L82.528 79.2998C82.6024 79.5097 82.5957 79.644 82.5809 79.7255C82.5643 79.8166 82.5203 79.929 82.4213 80.0523C82.2169 80.3066 81.7855 80.5837 81.1445 80.5837V84.5837V88.5837C86.9571 88.5837 92.3928 83.1808 90.0677 76.6255L86.2979 77.9626ZM81.1445 84.5837V80.5837H63.1055V84.5837V88.5837H81.1445V84.5837ZM63.1055 84.5837L67.0267 83.794C65.7547 77.4779 62.2661 67.3715 52.5277 61.3141L50.415 64.7107L48.3024 68.1072C55.2835 72.4495 58.087 79.9255 59.1842 85.3735L63.1055 84.5837ZM50.415 64.7107L52.8345 67.896C55.5074 65.8658 59.0317 64.4167 63.8223 64.4167V60.4167V56.4167C57.2548 56.4167 52.0367 58.4559 47.9956 61.5254L50.415 64.7107Z" fill="#33363F"/>
<path d="M33.6136 60.4167C55.1917 60.4167 61.3563 75.8301 63.1175 84.6371C63.7719 87.909 61.117 90.6251 57.7803 90.6251H9.44695C6.11023 90.6251 3.45536 87.909 4.10968 84.6371C5.87088 75.8301 12.0356 60.4167 33.6136 60.4167Z" stroke="#33363F" stroke-width="8" stroke-linecap="round"/>
<circle cx="33.6134" cy="24.1667" r="20.1667" fill="#FFF5EF" stroke="#33363F" stroke-width="8" stroke-linecap="round"/>
</svg>
